<mxfile host="65bd71144e">
    <diagram id="i0sJS4xQ93uKCmPZy6tr" name="Page-1">
        <mxGraphModel dx="1728" dy="392" grid="1" gridSize="10" guides="1" tooltips="1" connect="1" arrows="1" fold="1" page="1" pageScale="1" pageWidth="850" pageHeight="1100" math="0" shadow="0">
            <root>
                <mxCell id="0"/>
                <mxCell id="1" parent="0"/>
                <mxCell id="2" value="" style="whiteSpace=wrap;html=1;" vertex="1" parent="1">
                    <mxGeometry x="100" y="280" width="210" height="250" as="geometry"/>
                </mxCell>
                <mxCell id="3" value="Proxy Address: 0x8888....8888" style="text;html=1;align=center;verticalAlign=middle;resizable=0;points=[];autosize=1;strokeColor=none;fillColor=none;" vertex="1" parent="1">
                    <mxGeometry x="70" y="80" width="190" height="30" as="geometry"/>
                </mxCell>
                <mxCell id="4" value="Impl. Address: 0x2222...2222" style="text;html=1;align=center;verticalAlign=middle;resizable=0;points=[];autosize=1;strokeColor=none;fillColor=none;" vertex="1" parent="1">
                    <mxGeometry x="70" y="100" width="180" height="30" as="geometry"/>
                </mxCell>
                <mxCell id="5" value="Proxy" style="text;html=1;align=center;verticalAlign=middle;resizable=0;points=[];autosize=1;strokeColor=none;fillColor=none;" vertex="1" parent="1">
                    <mxGeometry x="180" y="250" width="50" height="30" as="geometry"/>
                </mxCell>
                <mxCell id="6" value="" style="whiteSpace=wrap;html=1;" vertex="1" parent="1">
                    <mxGeometry x="540" y="280" width="210" height="250" as="geometry"/>
                </mxCell>
                <mxCell id="7" value="Implementation" style="text;html=1;align=center;verticalAlign=middle;resizable=0;points=[];autosize=1;strokeColor=none;fillColor=none;" vertex="1" parent="1">
                    <mxGeometry x="590" y="250" width="110" height="30" as="geometry"/>
                </mxCell>
                <mxCell id="8" value="Admin: Proxy (Self)" style="text;html=1;align=center;verticalAlign=middle;resizable=0;points=[];autosize=1;strokeColor=none;fillColor=none;" vertex="1" parent="1">
                    <mxGeometry x="230" y="250" width="130" height="30" as="geometry"/>
                </mxCell>
                <mxCell id="12" style="edgeStyle=none;html=1;" edge="1" parent="1" source="9" target="11">
                    <mxGeometry relative="1" as="geometry"/>
                </mxCell>
                <mxCell id="9" value="" style="shape=actor;whiteSpace=wrap;html=1;" vertex="1" parent="1">
                    <mxGeometry x="-110" y="355" width="40" height="60" as="geometry"/>
                </mxCell>
                <mxCell id="10" value="upgradeImplemtnation() onlyAdmin {}" style="text;html=1;align=center;verticalAlign=middle;resizable=0;points=[];autosize=1;strokeColor=none;fillColor=none;" vertex="1" parent="1">
                    <mxGeometry x="95" y="310" width="220" height="30" as="geometry"/>
                </mxCell>
                <mxCell id="13" style="edgeStyle=none;html=1;entryX=-0.023;entryY=0.42;entryDx=0;entryDy=0;entryPerimeter=0;" edge="1" parent="1" source="11" target="6">
                    <mxGeometry relative="1" as="geometry"/>
                </mxCell>
                <mxCell id="11" value="fallback()" style="text;html=1;align=center;verticalAlign=middle;resizable=0;points=[];autosize=1;strokeColor=none;fillColor=none;" vertex="1" parent="1">
                    <mxGeometry x="100" y="370" width="70" height="30" as="geometry"/>
                </mxCell>
                <mxCell id="14" value="Call" style="text;html=1;align=center;verticalAlign=middle;resizable=0;points=[];autosize=1;strokeColor=none;fillColor=none;" vertex="1" parent="1">
                    <mxGeometry x="-20" y="355" width="40" height="30" as="geometry"/>
                </mxCell>
                <mxCell id="15" value="DelegateCall" style="text;html=1;align=center;verticalAlign=middle;resizable=0;points=[];autosize=1;strokeColor=none;fillColor=none;" vertex="1" parent="1">
                    <mxGeometry x="310" y="355" width="90" height="30" as="geometry"/>
                </mxCell>
                <mxCell id="16" value="&lt;font style=&quot;font-size: 8px;&quot;&gt;(Can only trigger implemetation functions)&lt;/font&gt;" style="text;html=1;align=center;verticalAlign=middle;resizable=0;points=[];autosize=1;strokeColor=none;fillColor=none;" vertex="1" parent="1">
                    <mxGeometry x="310" y="340" width="170" height="30" as="geometry"/>
                </mxCell>
                <mxCell id="17" value="&lt;font style=&quot;font-size: 12px;&quot;&gt;executeTransactions(Transactions) {}&lt;/font&gt;" style="text;html=1;align=center;verticalAlign=middle;resizable=0;points=[];autosize=1;strokeColor=none;fillColor=none;fontSize=8;" vertex="1" parent="1">
                    <mxGeometry x="535" y="370" width="220" height="30" as="geometry"/>
                </mxCell>
                <mxCell id="20" value="&lt;font size=&quot;1&quot; color=&quot;#f00038&quot;&gt;&lt;b style=&quot;font-size: 16px;&quot;&gt;FAIL - INVALID SIGNER SIG&lt;/b&gt;&lt;/font&gt;" style="text;html=1;align=center;verticalAlign=middle;resizable=0;points=[];autosize=1;strokeColor=none;fillColor=none;fontSize=12;" vertex="1" parent="1">
                    <mxGeometry x="310" y="320" width="230" height="30" as="geometry"/>
                </mxCell>
                <mxCell id="21" value="&lt;font color=&quot;#f0dad6&quot;&gt;Reguler User&lt;/font&gt;" style="text;html=1;align=center;verticalAlign=middle;resizable=0;points=[];autosize=1;strokeColor=none;fillColor=none;fontSize=16;fontColor=#F00038;" vertex="1" parent="1">
                    <mxGeometry x="-150" y="320" width="120" height="30" as="geometry"/>
                </mxCell>
                <mxCell id="22" value="" style="shape=actor;whiteSpace=wrap;html=1;" vertex="1" parent="1">
                    <mxGeometry x="-110" y="230" width="40" height="60" as="geometry"/>
                </mxCell>
                <mxCell id="23" value="&lt;font color=&quot;#f0dad6&quot;&gt;Executor (Includes Valid Signer Sig)&lt;/font&gt;" style="text;html=1;align=center;verticalAlign=middle;resizable=0;points=[];autosize=1;strokeColor=none;fillColor=none;fontSize=16;fontColor=#F00038;" vertex="1" parent="1">
                    <mxGeometry x="-230" y="190" width="280" height="30" as="geometry"/>
                </mxCell>
            </root>
        </mxGraphModel>
    </diagram>
</mxfile>